<svg width="85" height="83" viewBox="0 0 85 83" fill="none" xmlns="http://www.w3.org/2000/svg">
<path d="M45 29C50.52 29 55 33.48 55 39C55 44.52 50.52 49 45 49C39.48 49 35 44.52 35 39C35 33.48 39.48 29 45 29ZM45 43C47.213 43 49 41.213 49 39C49 36.787 47.213 35 45 35C42.787 35 41 36.787 41 39C41 41.213 42.787 43 45 43ZM45 38C45.55 38 46 38.45 46 39C46 39.55 45.55 40 45 40C44.45 40 44 39.55 44 39C44 38.45 44.45 38 45 38Z" fill="url(#paint0_angular_157_7)"/>
<path d="M72.495 41.4172C72.3936 41.6429 72.2974 41.8773 72.2063 42.1203C72.1327 42.3529 72.0644 42.5647 72.0013 42.7556C71.9312 42.9743 71.8698 43.1878 71.8171 43.3961C71.7644 43.6044 71.7116 43.8422 71.6588 44.1095C71.6165 44.3351 71.5706 44.6041 71.5211 44.9165C71.4681 45.2428 71.422 45.6003 71.3828 45.989C71.3139 45.7357 71.2257 45.5293 71.1183 45.3698C71.0109 45.2103 70.9104 45.082 70.8168 44.985C70.6989 44.8671 70.5878 44.7805 70.4836 44.7251C70.3795 44.6697 70.1483 44.6197 69.7903 44.575C69.4323 44.5303 69.0151 44.4857 68.5388 44.4411C68.059 44.4105 67.5566 44.3816 67.0316 44.3544C66.5067 44.3273 66.0234 44.3105 65.5818 44.3041C65.1366 44.3116 64.7645 44.3224 64.4655 44.3367C64.1629 44.3648 64.0115 44.4084 64.0113 44.4673C63.9973 44.5229 64.1152 44.6407 64.3651 44.8209C64.6115 45.0149 64.9169 45.2384 65.2814 45.4913C65.6598 45.7477 66.0711 46.0196 66.5155 46.3071C66.9737 46.5981 67.4025 46.8596 67.8018 47.0916C68.2011 47.3236 68.5379 47.5106 68.8123 47.6526C69.097 47.8119 69.2689 47.8915 69.328 47.8914C69.3942 47.8636 69.4829 47.834 69.5943 47.8026C69.7718 47.7434 70.0903 47.5938 70.5499 47.3538C70.4203 47.7496 70.3046 48.0898 70.2031 48.3745C70.1154 48.6626 70.0348 48.8935 69.9614 49.0671C69.8809 49.2685 69.8179 49.4299 69.7724 49.5514C69.7268 49.673 69.6812 49.8535 69.6354 50.093C69.5862 50.2874 69.5281 50.546 69.4612 50.8688C69.4047 51.209 69.3428 51.6289 69.2755 52.1287C69.1583 51.7159 69.0462 51.3708 68.9391 51.0933C68.8424 50.8331 68.7542 50.6267 68.6747 50.4741C68.5743 50.2868 68.4842 50.1464 68.4045 50.0528C68.2484 49.9107 67.8614 49.6301 67.2435 49.2109C66.9797 49.0273 66.6534 48.7986 66.2647 48.5249C65.8724 48.2651 65.3986 47.9482 64.8432 47.574C64.2981 47.2172 63.6594 46.7929 62.927 46.301C62.1945 45.8091 61.3527 45.2531 60.4015 44.633L60.7041 42.5609C61.6466 42.5146 62.4308 42.4807 63.0568 42.4592C63.6931 42.4549 64.2043 42.4491 64.5903 42.4417C65.0354 42.4343 65.3831 42.4321 65.6335 42.4353C65.9151 42.4315 66.3185 42.4431 66.8435 42.4703C67.3824 42.5009 67.9282 42.5332 68.481 42.5672C69.0338 42.6013 69.531 42.6215 69.9726 42.6279C70.4281 42.6378 70.7116 42.627 70.8229 42.5957C70.9065 42.5574 71.0283 42.4844 71.1886 42.3766C71.3279 42.2931 71.4986 42.1732 71.7007 42.0168C71.9166 41.8639 72.1814 41.664 72.495 41.4172Z" fill="#E34C1F"/>
<path d="M66.0806 54.4368L63.5926 57.5096C63.0452 56.7935 62.564 56.2016 62.1489 55.7336C61.725 55.2769 61.358 54.9099 61.0479 54.6324C60.7104 54.2973 60.4027 54.0399 60.1249 53.8601C59.8608 53.7091 59.5619 53.5674 59.2283 53.435C58.9488 53.3265 58.6088 53.2253 58.2081 53.1315C57.8075 53.0376 57.3712 52.9886 56.8994 52.9846C57.0514 52.885 57.2009 52.7654 57.348 52.6258C57.4951 52.4862 57.6276 52.3534 57.7456 52.2275C57.8814 52.0791 58.0059 51.9218 58.1191 51.7559C58.2322 51.5899 58.3531 51.4026 58.4817 51.1941C58.5835 51.0194 58.7064 50.8065 58.8503 50.5555C58.9942 50.3046 59.1357 50.0336 59.2748 49.7426C59.6502 50.3067 59.9889 50.7788 60.2909 51.1588C60.584 51.55 60.8371 51.8648 61.0503 52.1032C61.3086 52.3767 61.5238 52.5894 61.6959 52.7413C61.922 52.9172 62.1764 53.115 62.459 53.3349C62.753 53.5635 63.0356 53.7833 63.307 53.9943C63.5783 54.2054 63.8202 54.3844 64.0326 54.5314C64.2563 54.6873 64.4098 54.7703 64.493 54.7806L64.7959 54.7441C64.9058 54.7207 65.065 54.6812 65.2735 54.6256C65.4843 54.59 65.7534 54.5271 66.0806 54.4368ZM67.7454 57.6639C67.683 57.9964 67.5302 58.2586 67.2869 58.4504C67.0348 58.6535 66.7762 58.7608 66.5113 58.7725C66.2463 58.7841 66.0241 58.684 65.8449 58.472C65.6568 58.2712 65.5899 57.9289 65.6442 57.445C65.7099 56.9699 65.8688 56.6308 66.1209 56.4277C66.373 56.2246 66.6296 56.1429 66.8905 56.1825C67.1514 56.2222 67.3739 56.368 67.558 56.62C67.7534 56.8808 67.8158 57.2288 67.7454 57.6639Z" fill="#E34C1F"/>
<path d="M57.5287 55.7927C57.6056 56.2691 57.6887 56.6818 57.7779 57.031C57.8588 57.3987 57.9298 57.7011 57.991 57.9383C58.0677 58.2156 58.1422 58.4478 58.2146 58.6348C58.316 58.8568 58.4328 59.1188 58.5652 59.4209C58.6893 59.7414 58.8243 60.0502 58.97 60.3472C59.1075 60.6627 59.2362 60.9355 59.3561 61.1658C59.4812 61.4093 59.5845 61.5769 59.666 61.6685C59.7609 61.755 59.8785 61.8405 60.0188 61.9251C60.2942 62.0808 60.6539 62.1968 61.0982 62.273C60.8161 62.4569 60.5758 62.6097 60.3771 62.7312C60.1702 62.8712 60.0009 62.9892 59.8691 63.0853C59.7292 63.1998 59.6067 63.3 59.5017 63.3859C59.4102 63.4667 59.2985 63.5552 59.1668 63.6513C59.0566 63.7238 58.9223 63.8132 58.7638 63.9195C58.6053 64.0257 58.4226 64.1489 58.2157 64.2889L57.5698 62.4428C57.338 63.1133 57.0503 63.6594 56.7069 64.0812C56.3634 64.5031 56.0182 64.8412 55.6713 65.0957C55.2813 65.3973 54.8721 65.6296 54.4437 65.7925C53.8978 65.9695 53.3689 66.0711 52.8568 66.0973C52.3314 66.1286 51.8625 66.1077 51.4502 66.0347C51.0298 65.9801 50.671 65.8867 50.3741 65.7545C50.0771 65.6222 49.8775 65.4836 49.7753 65.3386C49.4129 64.8788 49.1865 64.4133 49.0962 63.942C49.011 63.484 48.9551 63.0226 48.9286 62.5576C48.894 62.1111 48.8459 61.6697 48.7844 61.2333C48.7096 60.8021 48.508 60.3807 48.1797 59.9693C48.0796 59.8694 47.9795 59.7696 47.8794 59.6698C47.7844 59.5833 47.6761 59.5019 47.5544 59.4256C47.4327 59.3493 47.3054 59.2981 47.1724 59.2721C47.3248 59.2294 47.4747 59.1801 47.622 59.1241C47.7744 59.0814 47.9134 59.0439 48.0391 59.0114C48.1915 58.9687 48.3306 58.9312 48.4562 58.8987C48.5953 58.8611 48.7786 58.7991 49.0062 58.7125C49.3944 58.5648 49.9891 58.3157 50.7902 57.965C50.7783 58.2913 50.7751 58.5607 50.7806 58.7731C50.7779 59.004 50.773 59.1897 50.766 59.3303C50.7693 59.4976 50.7732 59.6264 50.7774 59.7167C50.7668 60.1652 50.8438 60.6416 51.0084 61.1459C51.1596 61.6554 51.387 62.1435 51.6907 62.6103C51.7981 62.7687 51.9452 62.9502 52.132 63.155C52.3188 63.3598 52.5365 63.5451 52.7851 63.7111C53.0203 63.8821 53.276 64.0071 53.5523 64.0859C53.8152 64.1698 54.0857 64.1741 54.3638 64.099C54.6419 64.0239 54.9172 63.8425 55.1898 63.555C55.449 63.2725 55.6833 62.8462 55.8926 62.2763C56.0341 61.8087 56.0843 61.2839 56.0432 60.7019C56.0198 60.2052 55.9055 59.6127 55.7004 58.9245C55.5005 58.2497 55.1228 57.5123 54.5672 56.7122C54.7649 56.6676 54.9442 56.6148 55.1048 56.5537C55.2706 56.506 55.4097 56.4684 55.5219 56.441C55.661 56.4034 55.7866 56.371 55.8989 56.3436C56.0194 56.2978 56.1559 56.2535 56.3083 56.2109C56.4422 56.1599 56.6095 56.0963 56.8103 56.0199C57.0163 55.9569 57.2557 55.8811 57.5287 55.7927Z" fill="#E34C1F"/>
<path d="M42.4007 69.818C42.1459 69.6808 41.9155 69.5601 41.7097 69.4557C41.5124 69.3696 41.3354 69.2908 41.1785 69.2192C41.0082 69.1429 40.8422 69.0756 40.6804 69.0175C40.5321 68.9642 40.341 68.9032 40.1069 68.8343C39.9132 68.78 39.6657 68.7063 39.3642 68.6132C39.0443 68.5288 38.6681 68.4317 38.2355 68.322C38.2821 68.2778 38.3975 68.1291 38.5817 67.8756C38.761 67.6356 38.9648 67.3284 39.1933 66.9539C39.4168 66.5929 39.6508 66.1823 39.8953 65.7223C40.1214 65.2708 40.3206 64.8097 40.4927 64.3389C40.6465 63.8767 40.7457 63.4177 40.7904 62.962C40.8301 62.5197 40.7754 62.1272 40.6262 61.7845C40.3059 61.0759 39.9699 60.5976 39.6183 60.3496C39.2533 60.0967 38.8979 59.9843 38.5522 60.0123C38.2064 60.0403 37.89 60.1549 37.6029 60.3561C37.3158 60.5574 37.09 60.7578 36.9255 60.9575C36.497 61.5036 36.1371 62.1124 35.8457 62.7839C35.6023 63.3661 35.4085 64.0422 35.2641 64.8122C35.1198 65.5821 35.1391 66.4261 35.3219 67.344C34.9813 67.1912 34.6853 67.0621 34.4342 66.9566C34.183 66.8512 33.9655 66.7579 33.7817 66.6766C33.5709 66.5857 33.3871 66.5045 33.2303 66.4329C33.0869 66.3662 32.9117 66.3033 32.7046 66.2441C32.5293 66.1812 32.3179 66.1128 32.0704 66.0391C31.8044 65.974 31.5115 65.8993 31.1916 65.8148C31.6198 64.4772 32.0031 63.2832 32.3414 62.2329C32.6748 61.1961 32.9799 60.2784 33.2567 59.4799C33.5151 58.6901 33.75 58.0059 33.9615 57.4275C34.1681 56.8625 34.3428 56.385 34.4854 55.9949C34.8384 55.0716 35.1026 54.474 35.2783 54.2023C35.5386 53.8241 35.8865 53.4773 36.3221 53.1619C36.7442 52.8418 37.2232 52.5953 37.7592 52.4226C38.3 52.2363 38.8788 52.1551 39.4954 52.1787C40.1035 52.184 40.7212 52.3298 41.3485 52.616C41.9624 52.8974 42.4359 53.1664 42.7691 53.423C43.0937 53.6613 43.3367 53.8932 43.4983 54.1187C43.6464 54.3393 43.7381 54.5472 43.7734 54.7425C43.7953 54.933 43.7944 55.1229 43.7709 55.3123C43.7523 55.4883 43.7362 55.6575 43.7225 55.82C43.7089 55.9825 43.743 56.1393 43.825 56.2905C43.929 56.4648 44.0397 56.6416 44.1572 56.8207C44.2661 56.9816 44.3885 57.1473 44.5244 57.3179C44.6468 57.4836 44.7766 57.6291 44.9137 57.7545L40.5184 56.4497C40.6988 56.3318 40.8405 56.2154 40.9436 56.1002C41.0467 55.9851 41.1222 55.8828 41.1701 55.7935C41.2279 55.6773 41.258 55.574 41.2606 55.4836C41.2657 55.3028 41.2353 55.094 41.1694 54.8573C41.0949 54.6023 40.9628 54.3798 40.7729 54.1899C40.5881 53.9865 40.3332 53.8493 40.0084 53.7783C39.6702 53.7025 39.2447 53.7399 38.7321 53.8906C38.3016 54.0251 37.8685 54.3337 37.4328 54.8164C37.0669 55.2328 36.6702 55.8589 36.2426 56.6945C35.815 57.5301 35.4147 58.6875 35.0415 60.1666C35.5891 59.4198 36.153 58.8995 36.7333 58.6056C37.3135 58.3118 37.8494 58.1391 38.3411 58.0874C38.9149 58.0196 39.4671 58.0733 39.9977 58.2487C40.6889 58.5274 41.2567 58.8303 41.7014 59.1574C42.1411 59.4979 42.4735 59.8608 42.6986 60.2461C42.9238 60.6313 43.0643 61.0394 43.1202 61.4704C43.1577 61.9099 43.1332 62.3729 43.0469 62.8593C42.9605 63.3458 42.8337 63.8176 42.6664 64.275C42.4942 64.7458 42.3344 65.183 42.1868 65.5865C42.0257 65.9852 41.8861 66.346 41.7681 66.6688C41.6451 67.0051 41.5804 67.2863 41.574 67.5122C41.5811 67.7431 41.6152 67.9836 41.6762 68.2338C41.7201 68.4474 41.7995 68.689 41.9144 68.9585C42.0379 69.2464 42.2 69.5329 42.4007 69.818Z" fill="#E34C1F"/>
<path d="M33.7672 54.1009C33.5103 54.1355 33.2831 54.1821 33.0859 54.2406C32.8886 54.2991 32.7224 54.3494 32.5873 54.3916C32.4306 54.4526 32.2943 54.5149 32.1782 54.5784C32.104 54.6243 31.9107 54.7841 31.5982 55.0577C31.2857 55.3313 30.9019 55.6864 30.4468 56.1229C29.9822 56.5488 29.4631 57.0319 28.8894 57.5722C28.3063 58.1018 27.7219 58.6516 27.1362 59.2214C26.5411 59.7806 25.9668 60.331 25.4135 60.8726C24.8507 61.4034 24.3471 61.8824 23.9028 62.3095C23.4477 62.7461 23.0788 63.1071 22.7961 63.3927C22.5135 63.6782 22.3553 63.8452 22.3218 63.8937C22.2762 63.9717 22.2449 64.0657 22.2279 64.1758C22.1939 64.3959 22.232 64.6861 22.3422 65.0465C21.716 64.6239 21.2312 64.306 20.8876 64.0928C20.692 63.9595 20.5155 63.8476 20.358 63.757C20.21 63.6772 20.0621 63.5973 19.9141 63.5174C19.7853 63.459 19.6415 63.3945 19.4827 63.3241C19.3132 63.2631 19.1479 63.2175 18.9867 63.1873C19.3468 62.9672 19.6867 62.7457 20.0062 62.5231C20.3258 62.3004 20.619 62.0912 20.8859 61.8956C21.1852 61.6717 21.4641 61.4465 21.7227 61.2201C22.2984 60.8112 22.9035 60.3385 23.5381 59.8019C24.1523 59.2641 24.7726 58.7116 25.3988 58.1442C26.0251 57.5768 26.6256 57.0129 27.2005 56.4525C27.7754 55.892 28.2964 55.3788 28.7635 54.9127C29.2103 54.4453 29.5918 54.0447 29.908 53.7107C30.204 53.3754 30.3909 53.1546 30.4688 53.0483C30.5923 52.864 30.7105 52.6845 30.8232 52.5096C30.9144 52.3536 31.0062 52.1876 31.0986 52.0115C31.2018 51.8259 31.2632 51.658 31.2827 51.5077L32.6695 53.0632C32.7934 53.2022 32.9179 53.3312 33.043 53.45C33.1587 53.5582 33.279 53.6717 33.4042 53.7906C33.5293 53.9094 33.6503 54.0129 33.7672 54.1009Z" fill="#E34C1F"/>
<path d="M14.1389 45.2997C14.2166 44.9784 14.2783 44.7047 14.3241 44.4785C14.3744 44.2387 14.411 44.0396 14.434 43.8813C14.4661 43.6958 14.4891 43.5375 14.5029 43.4063C14.5303 43.2796 14.5487 43.1349 14.5581 42.9721C14.5765 42.8273 14.5927 42.6668 14.6066 42.4904C14.6115 42.2959 14.6141 42.0856 14.6145 41.8595L17.1646 42.8366C16.7889 42.3808 16.5448 41.9157 16.4322 41.4412C16.306 40.9622 16.241 40.526 16.2372 40.1326C16.2289 39.6623 16.2819 39.2122 16.3961 38.7824C16.5556 38.3524 16.7582 37.9743 17.0037 37.6481C17.2175 37.3717 17.4924 37.1155 17.8285 36.8795C18.1692 36.6299 18.5936 36.4909 19.1018 36.4625C18.7808 35.8438 18.5663 35.2678 18.4584 34.7345C18.3414 34.1831 18.2742 33.7085 18.2568 33.3106C18.2485 32.8403 18.2924 32.4174 18.3883 32.0419C18.5389 31.5486 18.771 31.1275 19.0847 30.7785C19.4029 30.4159 19.7504 30.1234 20.1274 29.9008C20.4907 29.6738 20.8539 29.5146 21.217 29.4233C21.5665 29.3274 21.8546 29.3018 22.0814 29.3465C22.3943 29.4045 22.7751 29.5527 23.2238 29.7912C23.6589 30.0253 24.103 30.2774 24.5562 30.5475C24.9958 30.8132 25.4036 31.0609 25.7798 31.2905C26.1469 31.5021 26.4143 31.6281 26.5821 31.6684C26.7318 31.6725 26.9269 31.6313 27.1675 31.5448C27.3764 31.4628 27.6465 31.3333 27.978 31.1561C28.3004 30.9608 28.7025 30.6636 29.1841 30.2645C29.0245 30.6945 28.8809 31.0769 28.7533 31.4119C28.6302 31.7332 28.5163 32.0048 28.4116 32.2267C28.2932 32.4893 28.193 32.7201 28.111 32.9193C28.0562 33.0822 27.9765 33.2746 27.8718 33.4965C27.7943 33.6821 27.6895 33.9265 27.5574 34.2298C27.4299 34.5195 27.2864 34.8568 27.1269 35.2416C27.1363 35.0787 27.1025 34.9319 27.0256 34.8009C26.9351 34.6655 26.8469 34.5459 26.7609 34.4421C26.6477 34.3293 26.5163 34.2257 26.3667 34.1311C26.2398 34.0591 26.0313 33.9601 25.7412 33.8342C25.4511 33.7084 25.1179 33.5758 24.7416 33.4366C24.3699 33.2838 23.9732 33.1378 23.5515 32.9987C23.1344 32.846 22.7332 32.7137 22.3478 32.6016C21.9624 32.4895 21.6064 32.4022 21.2799 32.3398C20.9533 32.2773 20.6971 32.2531 20.511 32.2671C20.3704 32.281 20.2432 32.3447 20.1296 32.458C20.0024 32.5668 19.9024 32.7073 19.8295 32.8793C19.743 33.0468 19.6905 33.2256 19.672 33.4155C19.6399 33.601 19.6419 33.7751 19.6779 33.9378C19.732 34.0914 19.8065 34.297 19.9013 34.5545C19.9917 34.7804 20.1182 35.0785 20.2808 35.4489C20.4435 35.8193 20.6491 36.2867 20.8976 36.8514C21.7408 37.1748 22.4231 37.4376 22.9444 37.6398C23.4567 37.8239 23.8466 37.9676 24.1141 38.0709C24.436 38.1922 24.6581 38.273 24.7806 38.3134C24.8848 38.3629 24.9891 38.3897 25.0934 38.394C25.3066 38.4341 25.5244 38.4155 25.7468 38.3381C25.6513 38.4875 25.5648 38.6551 25.4873 38.8407C25.4144 39.0127 25.3461 39.1711 25.2823 39.316C25.2094 39.488 25.1434 39.6623 25.0841 39.8388C25.0339 39.9881 24.986 40.1533 24.9403 40.3343C24.9037 40.4881 24.8625 40.6781 24.8168 40.9044C24.7574 41.1261 24.698 41.3704 24.6385 41.6374C24.607 41.5063 24.5551 41.3911 24.4826 41.2918C24.4102 41.1925 24.3401 41.1091 24.2721 41.0414C24.1952 40.9557 24.1204 40.8858 24.048 40.8317C23.9709 40.7912 23.7828 40.699 23.4836 40.555C23.1709 40.4066 22.7991 40.2538 22.3685 40.0966C21.9378 39.9395 21.4821 39.7891 21.0015 39.6457C20.5072 39.4977 20.0492 39.3994 19.6274 39.3507C19.192 39.2975 18.8154 39.3166 18.4977 39.4078C18.1845 39.4855 17.9959 39.6646 17.9319 39.9451C17.8497 40.2799 17.8195 40.6395 17.8415 41.0238C17.8546 41.3448 17.9152 41.7042 18.0234 42.1018C18.1315 42.4995 18.3213 42.9015 18.5928 43.3077C19.5947 43.6986 20.3926 43.9996 20.9865 44.2106C21.585 44.408 22.043 44.5516 22.3604 44.6412C22.7322 44.7488 22.9884 44.8182 23.1289 44.8495C23.2287 44.8673 23.3353 44.8648 23.4488 44.8419C23.5441 44.8281 23.6553 44.812 23.7823 44.7936C23.9139 44.7616 24.041 44.7206 24.1636 44.6705L22.9126 47.8549C22.8947 47.7283 22.8586 47.6108 22.8044 47.5025C22.7365 47.3896 22.6641 47.2903 22.5872 47.2046C22.4966 47.1143 22.406 47.0241 22.3154 46.9339C22.2339 46.8618 22.0209 46.7538 21.6764 46.61C21.3364 46.4526 20.9329 46.2818 20.466 46.0975C19.9855 45.9088 19.4822 45.7202 18.9563 45.5316C18.4214 45.325 17.9227 45.1454 17.4602 44.9928C16.9887 44.8221 16.5897 44.683 16.2633 44.5753C15.9232 44.4631 15.7169 44.4026 15.6444 44.3937C15.4947 44.3896 15.3268 44.4171 15.1407 44.4764C14.9999 44.5355 14.841 44.6264 14.6638 44.7489C14.4731 44.867 14.2981 45.0506 14.1389 45.2997Z" fill="#E34C1F"/>
<path d="M26.7082 20.1286C27.0816 20.0602 27.4031 19.9967 27.6725 19.938C27.9501 19.8608 28.1875 19.7992 28.385 19.7531C28.6091 19.6967 28.8039 19.644 28.9693 19.595C29.1348 19.546 29.327 19.4866 29.5458 19.4169C29.9115 19.29 30.4188 19.0928 31.0676 18.8251C30.6699 18.949 30.4025 19.1683 30.2652 19.4829C30.136 19.779 30.0733 20.0877 30.0773 20.4089C30.0756 20.7937 30.1551 21.2085 30.3158 21.6531C30.5211 22.2494 30.7454 22.7769 30.9886 23.2356C31.2399 23.6757 31.5116 24.0311 31.8036 24.3017C32.1037 24.5538 32.4256 24.7053 32.7692 24.756C33.1075 24.7935 33.4837 24.6933 33.8979 24.4554C34.312 24.2175 34.5851 23.9345 34.7171 23.6066C34.8572 23.2601 34.9095 22.8863 34.8739 22.4853C34.833 22.0708 34.727 21.628 34.5558 21.1567C34.3979 20.6802 34.2255 20.1864 34.0384 19.6752C33.838 19.1691 33.689 18.8122 33.5913 18.6043C33.5016 18.3779 33.4369 18.234 33.3972 18.1726C33.3575 18.1112 33.3269 18.0924 33.3055 18.1161C33.2788 18.1265 33.2323 18.1061 33.1659 18.0551C33.1181 18.0123 33.0569 17.9746 32.9824 17.9421C32.9213 17.9044 32.8442 17.8652 32.7511 17.8246C32.6527 17.7706 32.5476 17.7193 32.4359 17.6705C32.7882 17.5489 33.1005 17.4428 33.3728 17.3523C33.6531 17.2432 33.8893 17.1591 34.0815 17.0997C34.3004 17.0299 34.4925 16.9706 34.658 16.9216C34.8101 16.8778 35.0116 16.8225 35.2624 16.7557C35.4732 16.7044 35.744 16.6298 36.0749 16.5319C36.4059 16.4339 36.8021 16.3259 37.2637 16.2079C36.9831 16.3938 36.7757 16.5898 36.6415 16.7956C36.5074 17.0015 36.4133 17.1917 36.3592 17.3664C36.2971 17.5597 36.2736 17.7532 36.2887 17.9471C36.3383 18.1891 36.4754 18.5353 36.7 18.9858C36.8902 19.3882 37.1811 19.9283 37.5726 20.6058C37.9642 21.2834 38.5054 22.164 39.1964 23.2476L37.9863 24.8017L36.6139 22.2696C36.4852 23.0726 36.2718 23.7396 35.9736 24.2705C35.6836 24.7829 35.3833 25.1916 35.0728 25.4968C34.7061 25.8546 34.3211 26.1272 33.9179 26.3148C33.3705 26.5276 32.8835 26.6786 32.4566 26.7678C32.0379 26.8385 31.6646 26.8684 31.3368 26.8575C31.009 26.8467 30.7294 26.8018 30.4978 26.7228C30.2744 26.6253 30.091 26.5122 29.9476 26.3836C29.6289 26.1233 29.36 25.7361 29.141 25.222C28.9167 24.6945 28.7284 24.1607 28.5762 23.6206C28.4187 23.0671 28.2863 22.5577 28.179 22.0923C28.0717 21.6269 27.9731 21.3194 27.8831 21.17C27.8089 21.0606 27.7162 20.943 27.6048 20.8172C27.5039 20.7182 27.3844 20.6109 27.2463 20.4956C27.103 20.367 26.9236 20.2446 26.7082 20.1286Z" fill="#E34C1F"/>
<path d="M53.1517 14.7532C52.9472 15.0261 52.7638 15.2748 52.6016 15.4993C52.4532 15.7274 52.319 15.9296 52.1989 16.1058C52.0717 16.3098 51.9586 16.4878 51.8596 16.6398C51.7535 16.8196 51.6331 17.0253 51.4986 17.257C51.3713 17.4609 51.2088 17.7149 51.0109 18.0191C50.8306 18.3129 50.6131 18.6637 50.3586 19.0716C50.4213 18.378 50.3577 17.7998 50.1676 17.337C49.9812 16.8604 49.7644 16.4721 49.5171 16.1721C49.2215 15.8301 48.8801 15.5503 48.4928 15.3327C47.7762 15.0158 47.2315 14.8909 46.8587 14.9579C46.4859 15.025 46.2133 15.162 46.0408 15.3692C45.9599 15.4519 45.8649 15.5606 45.7558 15.6953C45.6641 15.8196 45.5775 15.9527 45.4961 16.0944C45.4285 16.2398 45.3818 16.3904 45.3558 16.5464C45.3299 16.7024 45.3598 16.8432 45.4454 16.9686C45.4967 17.0557 45.6517 17.199 45.9105 17.3984C46.1729 17.584 46.4854 17.8046 46.8479 18.0603C47.2279 18.3056 47.6251 18.5701 48.0395 18.8539C48.4678 19.1412 48.8684 19.4213 49.2411 19.6944C49.6139 19.9674 49.9312 20.2262 50.193 20.4708C50.4548 20.7154 50.6162 20.9195 50.6771 21.0829C50.7242 21.2429 50.7655 21.4531 50.8011 21.7136C50.8542 21.9638 50.8653 22.2328 50.8346 22.5206C50.8213 22.7982 50.7628 23.0789 50.659 23.3628C50.5728 23.6364 50.4241 23.894 50.213 24.1356C50.0019 24.3772 49.7129 24.5766 49.3462 24.7339C48.9933 24.8948 48.5472 24.9874 48.008 25.0117C47.3782 25.0424 46.8037 24.9468 46.2843 24.7249C45.7649 24.5029 45.298 24.2501 44.8836 23.9664C44.4831 23.6862 44.1362 23.4272 43.8431 23.1894C43.5535 22.9377 43.3358 22.8079 43.1898 22.8C43.03 22.7886 42.8366 22.8203 42.6098 22.8952C42.383 22.9701 42.1613 23.0537 41.9448 23.1461C41.7457 23.2281 41.5693 23.3085 41.4155 23.3874C41.2653 23.4523 41.1938 23.471 41.201 23.4433C41.2083 23.4155 41.2508 23.3377 41.3286 23.2098C41.4203 23.0855 41.5192 22.9334 41.6254 22.7536C41.749 22.5635 41.8694 22.3578 41.9864 22.1365C42.1209 21.9048 42.231 21.6817 42.3166 21.4671C42.3914 21.294 42.484 21.0812 42.5944 20.8286C42.6837 20.6001 42.7926 20.3249 42.921 20.003C43.067 19.6708 43.238 19.271 43.4341 18.8038C43.4093 19.1819 43.425 19.5186 43.4811 19.8139C43.5511 20.1128 43.6232 20.3753 43.6974 20.6013C43.7921 20.8622 43.8889 21.0867 43.9878 21.2747C44.1453 21.5221 44.341 21.7645 44.5751 22.002C44.823 22.243 45.0763 22.4632 45.3351 22.6627C45.5975 22.8483 45.8569 22.9887 46.1133 23.0841C46.3696 23.1794 46.5988 23.2086 46.8009 23.1717C47.003 23.1348 47.1954 23.0215 47.3782 22.8318C47.5748 22.6457 47.7353 22.4281 47.8595 22.179C47.9838 21.9299 48.0697 21.6858 48.1174 21.4467C48.1687 21.1937 48.1587 20.9767 48.0875 20.7958C48.0296 20.6774 47.868 20.5029 47.6025 20.2722C47.351 20.045 47.0406 19.788 46.6715 19.5011C46.3162 19.2177 45.935 18.9203 45.5278 18.6089C45.1345 18.301 44.762 17.9984 44.4103 17.7012C44.0761 17.3937 43.8008 17.1161 43.5842 16.8683C43.3852 16.6103 43.2917 16.4014 43.3037 16.2419C43.3339 16.013 43.3764 15.7652 43.4313 15.4983C43.4898 15.2176 43.5742 14.9509 43.6846 14.6983C43.8125 14.4354 43.9784 14.197 44.1823 13.9831C44.4 13.7728 44.6763 13.6219 45.0111 13.5303C45.2343 13.4692 45.5126 13.4519 45.8462 13.4783C46.1798 13.5048 46.5408 13.5678 46.9293 13.6674C47.3214 13.7532 47.7201 13.8702 48.1254 14.0186C48.5344 14.153 48.919 14.296 49.2791 14.4475C49.6567 14.5888 49.9891 14.7332 50.2762 14.8807C50.5772 15.0319 50.8037 15.1565 50.9557 15.2546C51.1318 15.3737 51.3381 15.434 51.5746 15.4355C51.7797 15.4438 52.0113 15.4071 52.2695 15.3254C52.5277 15.2438 52.8217 15.0531 53.1517 14.7532Z" fill="#E34C1F"/>
<path d="M57.4771 19.5987L60.4513 22.2026C59.703 22.712 59.083 23.1615 58.5911 23.5512C58.1102 23.9501 57.7224 24.2968 57.4276 24.5912C57.0734 24.9102 56.799 25.2031 56.6042 25.47C56.4392 25.7247 56.2817 26.0141 56.132 26.3384C56.009 26.6102 55.8903 26.9424 55.7761 27.3348C55.6619 27.7273 55.5912 28.157 55.564 28.6241C55.4711 28.4691 55.3579 28.3156 55.2245 28.1635C55.091 28.0115 54.9637 27.8742 54.8426 27.7516C54.6997 27.6104 54.5474 27.4799 54.3857 27.3603C54.224 27.2406 54.0413 27.1124 53.8375 26.9756C53.6664 26.8667 53.4579 26.7353 53.2121 26.5814C52.9663 26.4274 52.7002 26.2749 52.4138 26.1239C53.0006 25.7779 53.4928 25.4641 53.8905 25.1824C54.2991 24.91 54.6287 24.6737 54.8793 24.4735C55.1675 24.2301 55.3924 24.0267 55.5539 23.8633C55.7422 23.6474 55.954 23.4045 56.1894 23.1347C56.4341 22.854 56.6695 22.5841 56.8954 22.3251C57.1213 22.066 57.3136 21.8346 57.4721 21.631C57.6401 21.4166 57.7313 21.2684 57.7458 21.1865L57.7238 20.8848C57.7056 20.7749 57.6736 20.6155 57.6278 20.4066C57.6023 20.1961 57.552 19.9268 57.4771 19.5987ZM60.8103 18.0974C61.1423 18.1743 61.3989 18.3376 61.5803 18.5872C61.7726 18.8461 61.8681 19.1071 61.8668 19.37C61.8656 19.633 61.7537 19.8483 61.5314 20.0162C61.3199 20.1933 60.9717 20.2439 60.4868 20.1681C60.0112 20.0814 59.6774 19.9086 59.4851 19.6496C59.2929 19.3906 59.2231 19.1329 59.2758 18.8763C59.3285 18.6197 59.4864 18.4061 59.7493 18.2353C60.0217 18.0537 60.3753 18.0077 60.8103 18.0974Z" fill="#E34C1F"/>
<path d="M67.3818 37.1347C67.3477 36.9639 67.2918 36.7555 67.2139 36.5094C67.1412 36.2767 67.0642 36.0532 66.983 35.8389C66.8918 35.5978 66.7887 35.3458 66.6738 35.0829C66.5539 34.8065 66.434 34.5302 66.314 34.2539C66.2093 34.0178 66.0852 33.7507 65.9417 33.4526C65.8167 33.1629 65.6875 32.8824 65.5542 32.6111C65.6485 32.6983 65.7578 32.7646 65.8822 32.81C66.0117 32.8689 66.1361 32.9143 66.2554 32.9463C66.3882 32.9733 66.5251 32.9912 66.6662 32.9998C66.8929 32.9919 67.1321 32.8954 67.3835 32.7102C67.6485 32.52 67.8612 32.2728 68.0217 31.9686C68.1872 31.6778 68.2763 31.3467 68.2888 30.9753C68.3198 30.6123 68.2241 30.2583 68.0015 29.9132C67.7554 29.5463 67.4775 29.237 67.1679 28.9854C66.8633 28.7473 66.5026 28.5834 66.0858 28.4939C65.6875 28.4128 65.229 28.4152 64.7102 28.5011C64.2099 28.5955 63.6385 28.7851 62.9959 29.0699C62.1973 29.428 61.5969 29.804 61.1947 30.1981C60.7926 30.5921 60.529 30.9881 60.404 31.386C60.279 31.784 60.2581 32.1738 60.3414 32.5554C60.4431 32.9454 60.5825 33.3138 60.7598 33.6605C60.9098 33.895 61.1127 34.087 61.3683 34.2364C61.582 34.3556 61.8576 34.4365 62.1953 34.479C62.533 34.5215 62.9477 34.4437 63.4393 34.2456L64.4681 36.6595C63.5696 36.6727 62.8093 36.5658 62.1873 36.3386C61.5787 36.1065 61.0758 35.8504 60.6788 35.5701C60.2161 35.2379 59.8473 34.8708 59.5726 34.4687C59.2707 33.9544 59.0453 33.4805 58.8964 33.0469C58.761 32.6082 58.681 32.1948 58.6565 31.8066C58.6321 31.4184 58.6446 31.047 58.6941 30.6924C58.7437 30.3378 58.8117 29.9916 58.8982 29.6538C58.9531 29.4348 59.0809 29.1657 59.2817 28.8465C59.4825 28.5274 59.742 28.2016 60.0603 27.8693C60.3921 27.532 60.7768 27.2133 61.2144 26.913C61.6521 26.6127 62.131 26.3811 62.6513 26.2182C63.185 26.0503 63.7542 25.9762 64.3589 25.9958C64.9637 26.0154 65.5964 26.1698 66.2572 26.4589C67.2509 26.8993 68.0073 27.4814 68.5264 28.2052C69.064 28.9374 69.4161 29.6852 69.5825 30.4484C69.7624 31.2067 69.7978 31.927 69.6886 32.6094C69.5794 33.2918 69.38 33.8168 69.0903 34.1843C68.8006 34.5518 68.5754 34.8265 68.4146 35.0086C68.2723 35.199 68.1576 35.341 68.0704 35.4345C68.0018 35.5364 67.9483 35.6175 67.9098 35.6776C67.8898 35.7462 67.8573 35.8423 67.8122 35.966C67.7705 36.058 67.7271 36.1658 67.682 36.2895C67.6453 36.3948 67.6003 36.5186 67.5469 36.6607C67.4935 36.8028 67.4384 36.9608 67.3818 37.1347Z" fill="#E34C1F"/>
<defs>
<radialGradient id="paint0_angular_157_7" cx="0" cy="0" r="1" gradientUnits="userSpaceOnUse" gradientTransform="translate(45 39) rotate(90) scale(10)">
<stop stop-color="#FFCF56" stop-opacity="0.99"/>
<stop offset="0.0572917" stop-color="#56FFA4" stop-opacity="0.8"/>
</radialGradient>
</defs>
</svg>
